# xmcd CD database file
#
# Track frame offsets:
#	150
#	28578
#	64815
#	107991
#	129113
#	163426
#	189113
#	233621
#
# Disc length: 3378 seconds
#
# Revision: 0
# Processed by: cddbd v1.5.2PL0 Copyright (c) Steve Scherf et al.
# Submitted via: CDex 1.51
#
DISCID=620d3008
DTITLE=Thomas Wallisch and Gustavo Casenave duo - UP
DYEAR=1999
DGENRE=Jazz
TTITLE0=TACANTA
TTITLE1=COMPLICANDO
TTITLE2=SILABAS
TTITLE3=NEVER ENOUGH
TTITLE4=ONE FOR MLADEN
TTITLE5=MAMAMA ESTA EN EL AIRE
TTITLE6=ELO
TTITLE7=LOOKING BACK
EXTD=YEAR: 1999
EXTT0=
EXTT1=
EXTT2=
EXTT3=
EXTT4=
EXTT5=
EXTT6=
EXTT7=
PLAYORDER=
